<?xml version='1.0' encoding='UTF-8'?>
<svg width="45mm" height="45mm" version="1.1" viewBox="0 0 45 45" xmlns="http://www.w3.org/2000/svg"><path d="M4,4H5V5H4zM5,4H6V5H5zM6,4H7V5H6zM7,4H8V5H7zM8,4H9V5H8zM9,4H10V5H9zM10,4H11V5H10zM12,4H13V5H12zM13,4H14V5H13zM14,4H15V5H14zM15,4H16V5H15zM16,4H17V5H16zM18,4H19V5H18zM19,4H20V5H19zM20,4H21V5H20zM21,4H22V5H21zM23,4H24V5H23zM24,4H25V5H24zM25,4H26V5H25zM26,4H27V5H26zM29,4H30V5H29zM30,4H31V5H30zM34,4H35V5H34zM35,4H36V5H35zM36,4H37V5H36zM37,4H38V5H37zM38,4H39V5H38zM39,4H40V5H39zM40,4H41V5H40zM4,5H5V6H4zM10,5H11V6H10zM12,5H13V6H12zM14,5H15V6H14zM15,5H16V6H15zM16,5H17V6H16zM19,5H20V6H19zM23,5H24V6H23zM26,5H27V6H26zM30,5H31V6H30zM34,5H35V6H34zM40,5H41V6H40zM4,6H5V7H4zM6,6H7V7H6zM7,6H8V7H7zM8,6H9V7H8zM10,6H11V7H10zM12,6H13V7H12zM14,6H15V7H14zM15,6H16V7H15zM16,6H17V7H16zM19,6H20V7H19zM20,6H21V7H20zM22,6H23V7H22zM23,6H24V7H23zM25,6H26V7H25zM27,6H28V7H27zM28,6H29V7H28zM29,6H30V7H29zM31,6H32V7H31zM34,6H35V7H34zM36,6H37V7H36zM37,6H38V7H37zM38,6H39V7H38zM40,6H41V7H40zM4,7H5V8H4zM6,7H7V8H6zM7,7H8V8H7zM8,7H9V8H8zM10,7H11V8H10zM14,7H15V8H14zM17,7H18V8H17zM21,7H22V8H21zM25,7H26V8H25zM29,7H30V8H29zM34,7H35V8H34zM36,7H37V8H36zM37,7H38V8H37zM38,7H39V8H38zM40,7H41V8H40zM4,8H5V9H4zM6,8H7V9H6zM7,8H8V9H7zM8,8H9V9H8zM10,8H11V9H10zM12,8H13V9H12zM13,8H14V9H13zM17,8H18V9H17zM18,8H19V9H18zM19,8H20V9H19zM20,8H21V9H20zM22,8H23V9H22zM23,8H24V9H23zM26,8H27V9H26zM29,8H30V9H29zM30,8H31V9H30zM32,8H33V9H32zM34,8H35V9H34zM36,8H37V9H36zM37,8H38V9H37zM38,8H39V9H38zM40,8H41V9H40zM4,9H5V10H4zM10,9H11V10H10zM14,9H15V10H14zM16,9H17V10H16zM24,9H25V10H24zM25,9H26V10H25zM27,9H28V10H27zM28,9H29V10H28zM29,9H30V10H29zM30,9H31V10H30zM34,9H35V10H34zM40,9H41V10H40zM4,10H5V11H4zM5,10H6V11H5zM6,10H7V11H6zM7,10H8V11H7zM8,10H9V11H8zM9,10H10V11H9zM10,10H11V11H10zM12,10H13V11H12zM14,10H15V11H14zM16,10H17V11H16zM18,10H19V11H18zM20,10H21V11H20zM22,10H23V11H22zM24,10H25V11H24zM26,10H27V11H26zM28,10H29V11H28zM30,10H31V11H30zM32,10H33V11H32zM34,10H35V11H34zM35,10H36V11H35zM36,10H37V11H36zM37,10H38V11H37zM38,10H39V11H38zM39,10H40V11H39zM40,10H41V11H40zM16,11H17V12H16zM18,11H19V12H18zM20,11H21V12H20zM21,11H22V12H21zM22,11H23V12H22zM23,11H24V12H23zM26,11H27V12H26zM27,11H28V12H27zM28,11H29V12H28zM29,11H30V12H29zM4,12H5V13H4zM7,12H8V13H7zM8,12H9V13H8zM9,12H10V13H9zM10,12H11V13H10zM11,12H12V13H11zM12,12H13V13H12zM13,12H14V13H13zM14,12H15V13H14zM16,12H17V13H16zM18,12H19V13H18zM23,12H24V13H23zM25,12H26V13H25zM26,12H27V13H26zM28,12H29V13H28zM30,12H31V13H30zM31,12H32V13H31zM33,12H34V13H33zM36,12H37V13H36zM38,12H39V13H38zM39,12H40V13H39zM40,12H41V13H40zM5,13H6V14H5zM6,13H7V14H6zM7,13H8V14H7zM8,13H9V14H8zM11,13H12V14H11zM15,13H16V14H15zM16,13H17V14H16zM17,13H18V14H17zM18,13H19V14H18zM20,13H21V14H20zM21,13H22V14H21zM22,13H23V14H22zM26,13H27V14H26zM27,13H28V14H27zM29,13H30V14H29zM30,13H31V14H30zM31,13H32V14H31zM36,13H37V14H36zM37,13H38V14H37zM38,13H39V14H38zM39,13H40V14H39zM4,14H5V15H4zM5,14H6V15H5zM7,14H8V15H7zM8,14H9V15H8zM10,14H11V15H10zM11,14H12V15H11zM14,14H15V15H14zM15,14H16V15H15zM17,14H18V15H17zM19,14H20V15H19zM20,14H21V15H20zM21,14H22V15H21zM22,14H23V15H22zM23,14H24V15H23zM24,14H25V15H24zM25,14H26V15H25zM26,14H27V15H26zM27,14H28V15H27zM30,14H31V15H30zM31,14H32V15H31zM32,14H33V15H32zM33,14H34V15H33zM35,14H36V15H35zM37,14H38V15H37zM38,14H39V15H38zM40,14H41V15H40zM5,15H6V16H5zM8,15H9V16H8zM11,15H12V16H11zM12,15H13V16H12zM14,15H15V16H14zM15,15H16V16H15zM16,15H17V16H16zM18,15H19V16H18zM20,15H21V16H20zM21,15H22V16H21zM23,15H24V16H23zM24,15H25V16H24zM26,15H27V16H26zM27,15H28V16H27zM28,15H29V16H28zM30,15H31V16H30zM32,15H33V16H32zM34,15H35V16H34zM35,15H36V16H35zM36,15H37V16H36zM37,15H38V16H37zM38,15H39V16H38zM39,15H40V16H39zM40,15H41V16H40zM5,16H6V17H5zM6,16H7V17H6zM7,16H8V17H7zM10,16H11V17H10zM14,16H15V17H14zM16,16H17V17H16zM17,16H18V17H17zM18,16H19V17H18zM19,16H20V17H19zM24,16H25V17H24zM28,16H29V17H28zM31,16H32V17H31zM32,16H33V17H32zM34,16H35V17H34zM35,16H36V17H35zM37,16H38V17H37zM40,16H41V17H40zM4,17H5V18H4zM5,17H6V18H5zM6,17H7V18H6zM13,17H14V18H13zM14,17H15V18H14zM15,17H16V18H15zM16,17H17V18H16zM18,17H19V18H18zM19,17H20V18H19zM20,17H21V18H20zM22,17H23V18H22zM25,17H26V18H25zM27,17H28V18H27zM30,17H31V18H30zM31,17H32V18H31zM32,17H33V18H32zM33,17H34V18H33zM36,17H37V18H36zM37,17H38V18H37zM39,17H40V18H39zM8,18H9V19H8zM10,18H11V19H10zM11,18H12V19H11zM14,18H15V19H14zM15,18H16V19H15zM18,18H19V19H18zM19,18H20V19H19zM22,18H23V19H22zM23,18H24V19H23zM28,18H29V19H28zM29,18H30V19H29zM31,18H32V19H31zM32,18H33V19H32zM33,18H34V19H33zM36,18H37V19H36zM37,18H38V19H37zM38,18H39V19H38zM39,18H40V19H39zM40,18H41V19H40zM5,19H6V20H5zM7,19H8V20H7zM8,19H9V20H8zM11,19H12V20H11zM14,19H15V20H14zM16,19H17V20H16zM19,19H20V20H19zM23,19H24V20H23zM25,19H26V20H25zM26,19H27V20H26zM31,19H32V20H31zM32,19H33V20H32zM33,19H34V20H33zM34,19H35V20H34zM35,19H36V20H35zM37,19H38V20H37zM38,19H39V20H38zM39,19H40V20H39zM4,20H5V21H4zM6,20H7V21H6zM7,20H8V21H7zM8,20H9V21H8zM10,20H11V21H10zM12,20H13V21H12zM13,20H14V21H13zM15,20H16V21H15zM16,20H17V21H16zM17,20H18V21H17zM21,20H22V21H21zM22,20H23V21H22zM23,20H24V21H23zM25,20H26V21H25zM26,20H27V21H26zM28,20H29V21H28zM29,20H30V21H29zM31,20H32V21H31zM34,20H35V21H34zM38,20H39V21H38zM5,21H6V22H5zM9,21H10V22H9zM11,21H12V22H11zM17,21H18V22H17zM21,21H22V22H21zM25,21H26V22H25zM26,21H27V22H26zM29,21H30V22H29zM31,21H32V22H31zM35,21H36V22H35zM37,21H38V22H37zM38,21H39V22H38zM4,22H5V23H4zM7,22H8V23H7zM8,22H9V23H8zM10,22H11V23H10zM12,22H13V23H12zM15,22H16V23H15zM16,22H17V23H16zM20,22H21V23H20zM22,22H23V23H22zM23,22H24V23H23zM27,22H28V23H27zM28,22H29V23H28zM31,22H32V23H31zM32,22H33V23H32zM34,22H35V23H34zM36,22H37V23H36zM38,22H39V23H38zM40,22H41V23H40zM4,23H5V24H4zM6,23H7V24H6zM9,23H10V24H9zM11,23H12V24H11zM13,23H14V24H13zM14,23H15V24H14zM16,23H17V24H16zM19,23H20V24H19zM20,23H21V24H20zM23,23H24V24H23zM24,23H25V24H24zM26,23H27V24H26zM27,23H28V24H27zM28,23H29V24H28zM29,23H30V24H29zM31,23H32V24H31zM34,23H35V24H34zM35,23H36V24H35zM37,23H38V24H37zM40,23H41V24H40zM5,24H6V25H5zM7,24H8V25H7zM10,24H11V25H10zM11,24H12V25H11zM13,24H14V25H13zM18,24H19V25H18zM20,24H21V25H20zM21,24H22V25H21zM23,24H24V25H23zM26,24H27V25H26zM28,24H29V25H28zM30,24H31V25H30zM31,24H32V25H31zM33,24H34V25H33zM34,24H35V25H34zM35,24H36V25H35zM36,24H37V25H36zM37,24H38V25H37zM4,25H5V26H4zM7,25H8V26H7zM8,25H9V26H8zM12,25H13V26H12zM13,25H14V26H13zM14,25H15V26H14zM17,25H18V26H17zM19,25H20V26H19zM21,25H22V26H21zM22,25H23V26H22zM23,25H24V26H23zM26,25H27V26H26zM27,25H28V26H27zM29,25H30V26H29zM31,25H32V26H31zM36,25H37V26H36zM38,25H39V26H38zM4,26H5V27H4zM5,26H6V27H5zM6,26H7V27H6zM8,26H9V27H8zM10,26H11V27H10zM12,26H13V27H12zM13,26H14V27H13zM16,26H17V27H16zM18,26H19V27H18zM19,26H20V27H19zM25,26H26V27H25zM27,26H28V27H27zM29,26H30V27H29zM31,26H32V27H31zM32,26H33V27H32zM33,26H34V27H33zM34,26H35V27H34zM35,26H36V27H35zM37,26H38V27H37zM39,26H40V27H39zM40,26H41V27H40zM4,27H5V28H4zM7,27H8V28H7zM8,27H9V28H8zM9,27H10V28H9zM11,27H12V28H11zM13,27H14V28H13zM15,27H16V28H15zM16,27H17V28H16zM18,27H19V28H18zM22,27H23V28H22zM23,27H24V28H23zM24,27H25V28H24zM27,27H28V28H27zM28,27H29V28H28zM30,27H31V28H30zM35,27H36V28H35zM36,27H37V28H36zM37,27H38V28H37zM38,27H39V28H38zM39,27H40V28H39zM40,27H41V28H40zM4,28H5V29H4zM6,28H7V29H6zM9,28H10V29H9zM10,28H11V29H10zM13,28H14V29H13zM14,28H15V29H14zM16,28H17V29H16zM21,28H22V29H21zM23,28H24V29H23zM24,28H25V29H24zM25,28H26V29H25zM26,28H27V29H26zM27,28H28V29H27zM30,28H31V29H30zM31,28H32V29H31zM32,28H33V29H32zM34,28H35V29H34zM35,28H36V29H35zM40,28H41V29H40zM4,29H5V30H4zM7,29H8V30H7zM12,29H13V30H12zM15,29H16V30H15zM17,29H18V30H17zM18,29H19V30H18zM21,29H22V30H21zM22,29H23V30H22zM23,29H24V30H23zM25,29H26V30H25zM26,29H27V30H26zM27,29H28V30H27zM29,29H30V30H29zM30,29H31V30H30zM31,29H32V30H31zM32,29H33V30H32zM36,29H37V30H36zM4,30H5V31H4zM5,30H6V31H5zM7,30H8V31H7zM8,30H9V31H8zM10,30H11V31H10zM12,30H13V31H12zM15,30H16V31H15zM16,30H17V31H16zM17,30H18V31H17zM19,30H20V31H19zM21,30H22V31H21zM28,30H29V31H28zM31,30H32V31H31zM32,30H33V31H32zM35,30H36V31H35zM39,30H40V31H39zM40,30H41V31H40zM4,31H5V32H4zM6,31H7V32H6zM8,31H9V32H8zM9,31H10V32H9zM13,31H14V32H13zM14,31H15V32H14zM18,31H19V32H18zM20,31H21V32H20zM23,31H24V32H23zM26,31H27V32H26zM30,31H31V32H30zM31,31H32V32H31zM32,31H33V32H32zM33,31H34V32H33zM34,31H35V32H34zM37,31H38V32H37zM38,31H39V32H38zM40,31H41V32H40zM4,32H5V33H4zM8,32H9V33H8zM10,32H11V33H10zM12,32H13V33H12zM13,32H14V33H13zM14,32H15V33H14zM18,32H19V33H18zM19,32H20V33H19zM22,32H23V33H22zM23,32H24V33H23zM24,32H25V33H24zM26,32H27V33H26zM27,32H28V33H27zM28,32H29V33H28zM29,32H30V33H29zM31,32H32V33H31zM32,32H33V33H32zM33,32H34V33H33zM34,32H35V33H34zM35,32H36V33H35zM36,32H37V33H36zM37,32H38V33H37zM38,32H39V33H38zM40,32H41V33H40zM12,33H13V34H12zM15,33H16V34H15zM16,33H17V34H16zM18,33H19V34H18zM19,33H20V34H19zM21,33H22V34H21zM22,33H23V34H22zM23,33H24V34H23zM24,33H25V34H24zM25,33H26V34H25zM26,33H27V34H26zM29,33H30V34H29zM32,33H33V34H32zM36,33H37V34H36zM38,33H39V34H38zM39,33H40V34H39zM4,34H5V35H4zM5,34H6V35H5zM6,34H7V35H6zM7,34H8V35H7zM8,34H9V35H8zM9,34H10V35H9zM10,34H11V35H10zM12,34H13V35H12zM14,34H15V35H14zM17,34H18V35H17zM18,34H19V35H18zM19,34H20V35H19zM21,34H22V35H21zM22,34H23V35H22zM23,34H24V35H23zM27,34H28V35H27zM29,34H30V35H29zM32,34H33V35H32zM34,34H35V35H34zM36,34H37V35H36zM40,34H41V35H40zM4,35H5V36H4zM10,35H11V36H10zM12,35H13V36H12zM13,35H14V36H13zM14,35H15V36H14zM18,35H19V36H18zM19,35H20V36H19zM23,35H24V36H23zM24,35H25V36H24zM25,35H26V36H25zM27,35H28V36H27zM29,35H30V36H29zM31,35H32V36H31zM32,35H33V36H32zM36,35H37V36H36zM39,35H40V36H39zM40,35H41V36H40zM4,36H5V37H4zM6,36H7V37H6zM7,36H8V37H7zM8,36H9V37H8zM10,36H11V37H10zM12,36H13V37H12zM14,36H15V37H14zM16,36H17V37H16zM18,36H19V37H18zM19,36H20V37H19zM20,36H21V37H20zM22,36H23V37H22zM23,36H24V37H23zM24,36H25V37H24zM25,36H26V37H25zM28,36H29V37H28zM30,36H31V37H30zM31,36H32V37H31zM32,36H33V37H32zM33,36H34V37H33zM34,36H35V37H34zM35,36H36V37H35zM36,36H37V37H36zM39,36H40V37H39zM40,36H41V37H40zM4,37H5V38H4zM6,37H7V38H6zM7,37H8V38H7zM8,37H9V38H8zM10,37H11V38H10zM12,37H13V38H12zM13,37H14V38H13zM14,37H15V38H14zM16,37H17V38H16zM17,37H18V38H17zM18,37H19V38H18zM21,37H22V38H21zM24,37H25V38H24zM25,37H26V38H25zM26,37H27V38H26zM27,37H28V38H27zM30,37H31V38H30zM33,37H34V38H33zM34,37H35V38H34zM38,37H39V38H38zM40,37H41V38H40zM4,38H5V39H4zM6,38H7V39H6zM7,38H8V39H7zM8,38H9V39H8zM10,38H11V39H10zM14,38H15V39H14zM17,38H18V39H17zM25,38H26V39H25zM26,38H27V39H26zM27,38H28V39H27zM32,38H33V39H32zM33,38H34V39H33zM36,38H37V39H36zM38,38H39V39H38zM40,38H41V39H40zM4,39H5V40H4zM10,39H11V40H10zM14,39H15V40H14zM15,39H16V40H15zM16,39H17V40H16zM19,39H20V40H19zM21,39H22V40H21zM22,39H23V40H22zM27,39H28V40H27zM28,39H29V40H28zM30,39H31V40H30zM31,39H32V40H31zM34,39H35V40H34zM36,39H37V40H36zM37,39H38V40H37zM38,39H39V40H38zM39,39H40V40H39zM40,39H41V40H40zM4,40H5V41H4zM5,40H6V41H5zM6,40H7V41H6zM7,40H8V41H7zM8,40H9V41H8zM9,40H10V41H9zM10,40H11V41H10zM12,40H13V41H12zM13,40H14V41H13zM17,40H18V41H17zM18,40H19V41H18zM20,40H21V41H20zM23,40H24V41H23zM24,40H25V41H24zM28,40H29V41H28zM32,40H33V41H32zM34,40H35V41H34zM35,40H36V41H35zM37,40H38V41H37zM40,40H41V41H40z" id="qr-path" fill="#000000" fill-opacity="1" fill-rule="nonzero" stroke="none" /></svg>